# Blender v3.0.1 OBJ File: 'untitled2.blend'
# www.blender.org
mtllib untitled3.mtl
o Куб.001_Куб.002
v -0.580456 0.169401 -0.034967
v -0.516131 0.276129 -0.124559
v -0.580456 1.488855 -0.034967
v -0.516131 0.276129 -1.169906
v -0.580456 0.169401 -1.262227
v 0.631003 0.276129 -0.124559
v -0.580456 1.488855 -1.262227
v 0.631003 0.276129 -1.169906
v 0.695328 0.169401 -0.034967
v 0.695328 1.488855 -0.034967
v 0.695328 0.169401 -1.262227
v 0.695328 1.488855 -1.262227
v -0.427468 1.488855 -0.124559
v 0.542341 1.488855 -0.124559
v -0.516131 1.488855 -0.124559
v 0.631003 1.488855 -0.124559
v -0.516131 1.488855 -1.169906
v 0.631003 1.488855 -1.169906
vt 0.375000 0.000000
vt 0.625000 0.000000
vt 0.625000 0.250000
vt 0.375000 0.250000
vt 0.625000 0.500000
vt 0.375000 0.500000
vt 0.625000 0.750000
vt 0.375000 0.750000
vt 0.625000 1.000000
vt 0.375000 1.000000
vt 0.125000 0.500000
vt 0.125000 0.750000
vt 0.845021 0.731750
vt 0.875000 0.750000
vt 0.654979 0.731750
vt 0.875000 0.500000
vt 0.862395 0.731750
vt 0.862395 0.518806
vt 0.637605 0.518806
vt 0.637605 0.731750
vt 0.485223 0.000000
vt 0.375000 0.000000
vt 0.375000 0.250000
vt 0.485223 0.250000
vt 0.375000 0.500000
vt 0.485223 0.500000
vt 0.375000 0.750000
vt 0.485223 0.750000
vt 0.375000 1.000000
vt 0.485223 1.000000
vt 0.485223 0.980677
vt 0.485223 0.769323
vt 0.125000 0.500000
vt 0.125000 0.750000
vn -1.0000 0.0000 0.0000
vn 0.0000 0.0000 -1.0000
vn 1.0000 0.0000 0.0000
vn 0.0000 0.0000 1.0000
vn 0.0000 -1.0000 0.0000
vn 0.0000 1.0000 0.0000
usemtl None
s off
f 1/1/1 3/2/1 7/3/1 5/4/1
f 5/4/2 7/3/2 12/5/2 11/6/2
f 11/6/3 12/5/3 10/7/3 9/8/3
f 9/8/4 10/7/4 3/9/4 1/10/4
f 5/11/5 11/6/5 9/8/5 1/12/5
f 13/13/6 3/14/6 10/7/6 14/15/6
f 14/15/6 10/7/6 12/5/6 7/16/6 3/14/6 13/13/6 15/17/6 17/18/6 18/19/6 16/20/6
f 15/21/3 2/22/3 4/23/3 17/24/3
f 17/24/4 4/23/4 8/25/4 18/26/4
f 8/25/1 6/27/1 16/28/1 18/26/1
f 16/28/2 6/27/2 2/29/2 15/30/2 13/31/2 14/32/2
f 4/33/6 2/34/6 6/27/6 8/25/6
